# xmcd
#
# Track frame offsets: 
#        150
#        10717
#        24785
#        45754
#        57167
#        69136
#        81110
#        93635
#        103807
#        115535
#
# Disc length: 1756 seconds
#
# Revision: 0
# Processed by: cddbd v1.5.2PL0 Copyright (c) Steve Scherf et al.
# Submitted via: ExactAudioCopy v1.0b4
#
DISCID=6406da0a
DTITLE=Johnny Winter  - Livin' In The Blues (LP)
DYEAR=1985
DGENRE=Blues
TTITLE0=Out Of Sight
TTITLE1=Low Down Gal Of Mine
TTITLE2=Going Down Slow
TTITLE3=Avocado Green
TTITLE4=Parchman Farm
TTITLE5=Livin' In The Blues
TTITLE6=Leavin' Blues
TTITLE7=38 - 32 - 20
TTITLE8=Bad News
TTITLE9=Kind Hearted Woman
EXTD=
EXTT0=
EXTT1=
EXTT2=
EXTT3=
EXTT4=
EXTT5=
EXTT6=
EXTT7=
EXTT8=
EXTT9=
PLAYORDER=
